# xmcd
# 
# Track frame offsets:
#     150
#     17100
#     31519
#     47576
#     59171
#     79765
#     93482
#     104995
#     121746
#     134214
# 
# Disc length: 2029
# 
# Revision: 0
# Processed by: cddbd v1.5.2PL0 Copyright (c) Steve Scherf et al.
# Submitted via: fre:ac v1.0.31
# 
DISCID=8a07eb0a
DTITLE=Davi Henn - A Banda de um Homem Só - Country Blues Vol-1
DYEAR=2014
DGENRE=Blues
TTITLE0=Sitting on Top of the World - Missipi Sheiks (1930)
TTITLE1=Me And The Devil Blues - Robert Jhonson (1837)
TTITLE2=Canned Heat Blues - Tommy Jhonson (1928)
TTITLE3=I Want You By My Side - Jazz Gillum (1936)
TTITLE4=Country Blues - Muddy Waters (1841)
TTITLE5=Catfish Blues - Robert Petway (1941)
TTITLE6=Nothing In Rambling - Memphis Minnie (1940)
TTITLE7=Back Door Man - Howlin' Wolf (1960)
TTITLE8=Nothing But Trouble - Lonnie Johnson (1949)
TTITLE9=Death Letter - Son House (1965)
EXTD=Artista das ruas de Curitiba-PR/Brasil
EXTT0=
EXTT1=
EXTT2=
EXTT3=
EXTT4=
EXTT5=
EXTT6=
EXTT7=
EXTT8=
EXTT9=
PLAYORDER=
